<svg width="480" height="101" fill="none" xmlns="http://www.w3.org/2000/svg"><path d="M326.03 100.423c-11.262 0-21.16-2.097-29.692-6.292-8.447-4.195-15.017-10.06-19.71-17.594-4.693-7.533-7.039-16.309-7.039-26.325 0-10.017 2.346-18.792 7.039-26.326 4.693-7.534 11.263-13.398 19.71-17.593C304.87 2.098 314.768 0 326.03 0c11.263 0 21.118 2.098 29.565 6.293 8.532 4.195 15.145 10.059 19.837 17.593 4.779 7.534 7.168 16.309 7.168 26.326 0 10.016-2.389 18.792-7.168 26.325-4.692 7.534-11.305 13.399-19.837 17.594-8.447 4.195-18.302 6.292-29.565 6.292zm0-21.702c6.656 0 12.372-1.113 17.15-3.34 4.778-2.31 8.447-5.607 11.007-9.888 2.645-4.28 3.968-9.374 3.968-15.281 0-5.908-1.323-11.002-3.968-15.282-2.56-4.28-6.229-7.534-11.007-9.76-4.778-2.312-10.494-3.467-17.15-3.467-6.57 0-12.244 1.155-17.022 3.467-4.778 2.226-8.489 5.48-11.134 9.76-2.645 4.28-3.968 9.374-3.968 15.282 0 5.907 1.323 11 3.968 15.281 2.645 4.281 6.356 7.577 11.134 9.889 4.778 2.226 10.452 3.339 17.022 3.339zm65.277-53.551h23.677l4.735 28.509v44.69h-23.805V50.083l-4.607-24.913zm55.673-2.055c6.996 0 12.926 1.413 17.79 4.238 4.949 2.825 8.703 6.806 11.262 11.943 2.645 5.051 3.968 11.13 3.968 18.236v40.837h-23.805V61.127c0-6.078-1.493-10.659-4.48-13.74-2.986-3.168-7.252-4.752-12.798-4.752-3.925 0-7.338.856-10.239 2.568-2.901 1.627-5.119 3.981-6.655 7.063-1.536 2.997-2.304 6.593-2.304 10.788l-7.551-3.981c.939-7.791 3.029-14.34 6.271-19.648 3.328-5.308 7.423-9.332 12.287-12.072 4.949-2.825 10.367-4.238 16.254-4.238zM37.257 13.042h24.116V98.63H37.257V13.042zM0 2.392h98.63V23.82H0V2.391z" fill="#fff"/><path fill-rule="evenodd" clip-rule="evenodd" d="M246.276 55.591H121.943v-10.76h124.333v10.76z" fill="url(#paint0_linear_58_1110)"/><defs><linearGradient id="paint0_linear_58_1110" x1="244.5" y1="55.592" x2="125.495" y2="55.592" gradientUnits="userSpaceOnUse"><stop stop-color="#FF7C1D"/><stop offset="1" stop-color="#FFE603"/></linearGradient></defs></svg>