<svg width="339" height="124" fill="none" xmlns="http://www.w3.org/2000/svg"><path d="M36 30.5l3.5-18h77l-3.5 18H86L71.5 103H48l15-72.5H36zm103.5 2L137 46h23l1.5-9s1-4.308 3-6c1.605-1.358 5-2 5-2h22s4.333.177 6 2c1.63 1.782 1.5 6 1.5 6l-7.5 41s-.5 3.5-2.5 5.5c-2.387 2.388-6 2.5-6 2.5h-23s-4.7-.5-5.5-2.5c-1-2.5-.5-5.5-.5-5.5l2-10.5-26 16v6s0 5 3 8.5c4.899 5.716 15 6 15 6h39s12.253 0 19.5-7c6-5.796 7.5-15 7.5-15l9-48.5s1.409-10.5-3.5-16.5c-4.5-5.5-16-6-16-6h-37s-12 0-19.5 7.5c-4.757 4.757-7.5 14-7.5 14zm85 70.5l12-69H257v6.5s5.873-2.989 9.5-4.5c6-2.5 14-3 14-3s13.5-1.5 19 4.5S303 52 303 52l-8.5 51H272l7.5-45.5s.361-3.64-.5-4.5c-1-1-2.5-1-2.5-1s-6.081-.123-8.5 0c-5.5.278-12.5 2.5-12.5 2.5l-8 48.5h-23z" fill="#fff"/><path d="M100.5 79.5l5-26.5H194l-93.5 26.5z" fill="#fff"/></svg>